# xmcd
#
# Track frame offsets:
#	150
#	9132
#	27162
#	42600
#	60654
#	76860
#	92322
#	111096
#	123366
#	141684
#	152106
#	176736
#	193950
#
# Disc length: 2920 seconds
#
# Revision: 0
# Processed by: cddbd v1.5.1PL0 Copyright (c) Steve Scherf et al.
# Submitted via: EasyCDDAExtractor 8.0.2.1
#
DISCID=a90b660d
DTITLE=Todd Lorenz - Here I Stand
DYEAR=2004
DGENRE=Blues
TTITLE0=The Dance of the Mustelids
TTITLE1=One Last Time
TTITLE2=Let Me In
TTITLE3=Hold On
TTITLE4=I'm Afraid
TTITLE5=I Need
TTITLE6=My Time Now
TTITLE7=I'm Your Man
TTITLE8=Goodbye
TTITLE9=Here I Stand
TTITLE10=Bring Me Down
TTITLE11=I Miss You
TTITLE12=Reminiscing
EXTD=
EXTT0=
EXTT1=
EXTT2=
EXTT3=
EXTT4=
EXTT5=
EXTT6=
EXTT7=
EXTT8=
EXTT9=
EXTT10=
EXTT11=
EXTT12=
PLAYORDER=
